<svg width="187" height="141" viewBox="0 0 187 141" fill="none" xmlns="http://www.w3.org/2000/svg">
<circle cx="60" cy="78" r="56.5" stroke="#DFDFDF" stroke-width="7"/>
<mask id="mask0_211_10" style="mask-type:alpha" maskUnits="userSpaceOnUse" x="53" y="0" width="134" height="130">
<rect x="53.5" y="0.5" width="133" height="129" fill="#D9D9D9" stroke="url(#paint0_linear_211_10)"/>
</mask>
<g mask="url(#mask0_211_10)">
<circle cx="60" cy="78" r="56.5" stroke="url(#paint1_linear_211_10)" stroke-width="7"/>
</g>
<circle cx="82" cy="130" r="9.5" fill="#D9D9D9" stroke="#4281B3" stroke-width="3"/>
<path d="M40.275 79.39V71.2L35.515 79.39H40.275ZM44.72 88H40.17V82.925H31.14V78.97L39.61 64.76H44.72V79.39H47.345V82.925H44.72V88ZM56.2205 85.06C58.5655 85.06 59.5805 83.625 59.5805 81.21C59.5805 79.075 58.5305 77.57 56.2205 77.57C53.9105 77.57 52.9305 79.005 52.9305 81.21C52.9305 83.625 53.8755 85.06 56.2205 85.06ZM56.2205 73.965C58.1105 73.965 59.0555 72.67 59.0555 70.85C59.0555 68.96 58.1105 67.7 56.2205 67.7C54.3305 67.7 53.3855 68.96 53.3855 70.85C53.3855 72.67 54.3305 73.965 56.2205 73.965ZM60.8055 75.295C62.9055 76.24 64.2705 78.62 64.2705 81.21C64.2705 85.62 61.6455 88.805 56.2555 88.805C50.9005 88.805 48.1705 85.515 48.1705 81.42C48.1705 78.725 49.3955 76.66 51.8105 75.505C49.8855 74.525 49.1855 72.355 49.1855 70.395C49.1855 66.72 52.1955 63.99 56.2555 63.99C60.8405 63.99 63.2205 66.72 63.2205 70.255C63.2205 72.285 62.5905 74.385 60.8055 75.295ZM69.7696 88.7H67.4246L83.5596 64.06H85.9396L69.7696 88.7ZM83.8396 86.915C84.9596 86.915 85.4846 85.725 85.4846 82.575C85.4846 79.355 84.9596 78.165 83.8396 78.165C82.7546 78.165 82.1946 79.32 82.1946 82.54C82.1946 85.76 82.7546 86.915 83.8396 86.915ZM83.7696 88.77C81.2846 88.77 79.8146 86.88 79.8146 82.505C79.8146 78.13 81.2846 76.345 83.7696 76.345C86.2896 76.345 87.7946 78.13 87.7946 82.47C87.7946 86.775 86.2896 88.77 83.7696 88.77ZM69.6646 74.56C70.7846 74.56 71.3096 73.37 71.3096 70.22C71.3096 67 70.7846 65.81 69.6646 65.81C68.5796 65.81 68.0196 66.965 68.0196 70.185C68.0196 73.405 68.5796 74.56 69.6646 74.56ZM69.5946 76.415C67.1096 76.415 65.6396 74.525 65.6396 70.15C65.6396 65.775 67.1096 63.99 69.5946 63.99C72.1146 63.99 73.6196 65.775 73.6196 70.115C73.6196 74.42 72.1146 76.415 69.5946 76.415Z" fill="#174D79"/>
<defs>
<linearGradient id="paint0_linear_211_10" x1="120" y1="0" x2="120" y2="130" gradientUnits="userSpaceOnUse">
<stop stop-color="#45A017"/>
<stop offset="1" stop-color="#45A017"/>
</linearGradient>
<linearGradient id="paint1_linear_211_10" x1="47" y1="14.5" x2="89" y2="54.5" gradientUnits="userSpaceOnUse">
<stop offset="0.177885" stop-color="#1E5989" stop-opacity="0.01"/>
<stop offset="1" stop-color="#1E5989"/>
</linearGradient>
</defs>
</svg>
