<svg width="921" height="180" viewBox="0 0 921 180" fill="none" xmlns="http://www.w3.org/2000/svg">
<rect width="921" height="180" fill="#EBF6FF"/>
<path d="M47.496 21.512H45.384C45.272 20.424 44.616 19.896 43.272 19.896C42.024 19.896 41.368 20.344 41.368 21.144C41.368 21.816 41.832 22.2 43.016 22.488C44.216 22.776 45.384 23.064 46.168 23.416C47.096 23.832 47.832 24.488 47.832 25.992C47.832 28.328 46.072 29.368 43.592 29.368C40.968 29.368 39.144 28.2 39.096 25.816H41.24C41.272 26.904 42.184 27.576 43.608 27.576C44.92 27.576 45.672 27.016 45.672 26.072C45.672 25.448 45.352 25.016 44.024 24.728C42.712 24.44 41.864 24.248 41.112 23.912C39.976 23.4 39.336 22.632 39.336 21.288C39.336 19.384 40.632 18.024 43.224 18.024C45.912 18.024 47.416 19.48 47.496 21.512ZM52.8956 25.864V23.816H54.8316V26.056C54.8316 27.72 53.8716 29.208 51.6476 29.208C49.3436 29.208 48.4316 27.736 48.4316 26.04V19H50.4796V21.128H54.8316V22.6H50.4796V25.832C50.4796 26.824 50.8316 27.4 51.6796 27.4C52.5116 27.4 52.8956 26.84 52.8956 25.864ZM60.4496 26.008L60.4656 25.144C60.2576 25.352 59.8896 25.464 59.1216 25.608C57.9376 25.832 57.5536 26.168 57.5536 26.84C57.5536 27.432 57.9056 27.72 58.5616 27.72C59.6336 27.72 60.4336 26.936 60.4496 26.008ZM62.5456 29H60.6096C60.5456 28.808 60.4976 28.536 60.4816 28.296C59.9856 28.84 59.1536 29.208 58.0976 29.208C56.3056 29.208 55.4736 28.328 55.4736 27.048C55.4736 24.776 56.9936 24.52 59.0896 24.232C60.1296 24.088 60.4176 23.88 60.4176 23.336C60.4176 22.824 59.9056 22.52 59.0896 22.52C58.1456 22.52 57.7616 22.984 57.6656 23.688H55.7296C55.7616 22.056 56.6576 20.92 59.1856 20.92C61.6816 20.92 62.5456 22.04 62.5456 24.024V29ZM67.9269 25.864V23.816H69.8629V26.056C69.8629 27.72 68.9029 29.208 66.6789 29.208C64.3749 29.208 63.4629 27.736 63.4629 26.04V19H65.5109V21.128H69.8629V22.6H65.5109V25.832C65.5109 26.824 65.8629 27.4 66.7109 27.4C67.5429 27.4 67.9269 26.84 67.9269 25.864ZM72.8409 29H70.7609V21.128H72.8409V29ZM72.8409 20.184H70.7609V18.248H72.8409V20.184ZM80.527 23.512H78.527C78.415 22.744 77.999 22.472 77.055 22.472C76.271 22.472 75.823 22.664 75.823 23.128C75.823 23.592 76.255 23.784 77.103 24.024C77.999 24.28 78.847 24.456 79.455 24.696C80.287 25.032 80.751 25.576 80.751 26.6C80.751 28.232 79.551 29.208 77.311 29.208C74.895 29.208 73.551 28.072 73.519 26.472H75.663C75.663 27.208 76.287 27.64 77.295 27.64C78.031 27.64 78.687 27.416 78.687 26.824C78.687 26.264 78.095 26.088 77.423 25.928C76.095 25.608 75.359 25.384 74.799 25.032C74.063 24.568 73.807 23.96 73.807 23.256C73.807 21.928 74.719 20.92 77.119 20.92C79.391 20.92 80.415 21.816 80.527 23.512ZM85.7081 25.864V23.816H87.6441V26.056C87.6441 27.72 86.6841 29.208 84.4601 29.208C82.1561 29.208 81.2441 27.736 81.2441 26.04V19H83.2921V21.128H87.6441V22.6H83.2921V25.832C83.2921 26.824 83.6441 27.4 84.4921 27.4C85.3241 27.4 85.7081 26.84 85.7081 25.864ZM90.6221 29H88.5421V21.128H90.6221V29ZM90.6221 20.184H88.5421V18.248H90.6221V20.184ZM96.5643 26.152H98.6603C98.4363 27.976 96.9483 29.208 95.0443 29.208C92.9003 29.208 91.4283 27.784 91.4283 24.968C91.4283 22.152 92.9003 20.92 95.1083 20.92C97.1563 20.92 98.5483 22.088 98.6763 23.944H96.5803C96.4683 23.128 95.8763 22.648 95.0923 22.648C94.2123 22.648 93.4923 23.208 93.4923 24.92C93.4923 26.632 94.2123 27.464 95.0283 27.464C95.8443 27.464 96.4843 27 96.5643 26.152Z" fill="#2C2C2C"/>
<path d="M499.91 33H495.23V26.36H496.62V31.79H499.91V33ZM502.426 32.04C503.216 32.04 503.616 31.54 503.616 30.54C503.616 29.54 503.216 29.05 502.426 29.05C501.636 29.05 501.236 29.54 501.236 30.54C501.236 31.54 501.636 32.04 502.426 32.04ZM502.426 33.13C500.836 33.13 499.896 32.07 499.896 30.54C499.896 28.98 500.866 27.95 502.426 27.95C503.966 27.95 504.926 28.97 504.926 30.54C504.926 32.1 503.956 33.13 502.426 33.13ZM506.697 33H505.397V28.08H506.617V28.67C507.047 28.01 507.547 27.95 508.077 27.95H508.247V29.28C508.127 29.26 508.007 29.25 507.887 29.25C507.087 29.25 506.697 29.65 506.697 30.44V33ZM509.537 30.06H511.547C511.527 29.33 511.047 28.98 510.537 28.98C510.017 28.98 509.587 29.38 509.537 30.06ZM512.887 30.88H509.497C509.537 31.62 509.957 32.1 510.597 32.1C511.017 32.1 511.387 31.89 511.477 31.55H512.817C512.517 32.56 511.707 33.13 510.657 33.13C509.017 33.13 508.197 32.23 508.197 30.45C508.197 28.93 509.067 27.95 510.577 27.95C512.087 27.95 512.887 28.93 512.887 30.88ZM520.376 33H519.106V30.02C519.106 29.43 518.796 29.01 518.336 29.01C517.856 29.01 517.506 29.46 517.506 30.06V33H516.206V30.04C516.206 29.25 515.996 29.05 515.426 29.05C514.906 29.05 514.636 29.37 514.636 30.01V33H513.336V28.08H514.556V28.8C514.886 28.15 515.346 27.95 515.996 27.95C516.666 27.95 516.986 28.16 517.366 28.73C517.636 28.19 518.076 27.95 518.696 27.95C519.686 27.95 520.376 28.67 520.376 29.59V33Z" fill="#8C8C8C"/>
<path d="M560.62 33H559.23V26.36H560.62V33ZM563.445 32.02C564.205 32.02 564.565 31.51 564.565 30.5C564.565 29.62 564.105 29.01 563.455 29.01C562.835 29.01 562.355 29.59 562.355 30.42C562.355 31.49 562.725 32.02 563.445 32.02ZM562.405 35.33H561.125V28.08H562.375L562.385 28.68C562.695 28.18 563.155 27.95 563.755 27.95C564.995 27.95 565.885 28.93 565.885 30.59C565.885 32.08 565.135 33.13 563.865 33.13C563.255 33.13 562.775 32.88 562.405 32.36V35.33ZM570.57 29.57H569.32C569.25 29.09 568.99 28.92 568.4 28.92C567.91 28.92 567.63 29.04 567.63 29.33C567.63 29.62 567.9 29.74 568.43 29.89C568.99 30.05 569.52 30.16 569.9 30.31C570.42 30.52 570.71 30.86 570.71 31.5C570.71 32.52 569.96 33.13 568.56 33.13C567.05 33.13 566.21 32.42 566.19 31.42H567.53C567.53 31.88 567.92 32.15 568.55 32.15C569.01 32.15 569.42 32.01 569.42 31.64C569.42 31.29 569.05 31.18 568.63 31.08C567.8 30.88 567.34 30.74 566.99 30.52C566.53 30.23 566.37 29.85 566.37 29.41C566.37 28.58 566.94 27.95 568.44 27.95C569.86 27.95 570.5 28.51 570.57 29.57ZM575.506 33H574.276V32.31C573.936 32.87 573.426 33.13 572.746 33.13C571.766 33.13 571.076 32.4 571.076 31.32V28.08H572.376V31.12C572.376 31.74 572.656 32.04 573.206 32.04C573.866 32.04 574.216 31.57 574.216 30.92V28.08H575.506V33ZM583.116 33H581.846V30.02C581.846 29.43 581.536 29.01 581.076 29.01C580.596 29.01 580.246 29.46 580.246 30.06V33H578.946V30.04C578.946 29.25 578.736 29.05 578.166 29.05C577.646 29.05 577.376 29.37 577.376 30.01V33H576.076V28.08H577.296V28.8C577.626 28.15 578.086 27.95 578.736 27.95C579.406 27.95 579.726 28.16 580.106 28.73C580.376 28.19 580.816 27.95 581.436 27.95C582.426 27.95 583.116 28.67 583.116 29.59V33Z" fill="#8C8C8C"/>
<path d="M58 51V162.5H864.5" stroke="black" stroke-opacity="0.15"/>
<path d="M159.5 163V66.5M280 163V66.5M404 163V66.5" stroke="black" stroke-opacity="0.15"/>
<path d="M526 163V66.5M646.5 163V66.5M770.5 163V66.5" stroke="black" stroke-opacity="0.15"/>
<path d="M58.5 162.5C58.5 162.5 129 87.5 159.5 87.5C190 87.5 228 112.5 280 112.5C332 112.5 364.5 87.5 403.5 87.5C442.5 87.5 493 109.5 526 109.5C559 109.5 631 73 646.5 73C662 73 742.5 91.5 770.5 91.5C798.5 91.5 851.5 130.5 851.5 130.5" stroke="#FF0101" stroke-opacity="0.45"/>
<path d="M58 105C58 105 125 141 159.5 141C194 141 364.5 98 404.5 98C444.5 98 489.5 79 526 79C562.5 79 601.5 119 647 119C692.5 119 830.5 79 830.5 79" stroke="#45A017" stroke-opacity="0.45"/>
<circle cx="159.5" cy="140.5" r="2" fill="white" stroke="#A0CF97"/>
<circle cx="279.5" cy="119.5" r="2" fill="white" stroke="#A0CF97"/>
<circle cx="404.5" cy="97.5" r="2" fill="white" stroke="#A0CF97"/>
<circle cx="525.5" cy="78.5" r="2" fill="white" stroke="#A0CF97"/>
<circle cx="646.5" cy="118.5" r="2" fill="white" stroke="#A0CF97"/>
<circle cx="779.5" cy="92.5" r="2" fill="white" stroke="#A0CF97"/>
<circle cx="159.5" cy="87.5" r="2" fill="white" stroke="#F4888D"/>
<circle cx="280.5" cy="112.5" r="2" fill="white" stroke="#F4888D"/>
<circle cx="403.5" cy="87.5" r="2" fill="white" stroke="#F4888D"/>
<circle cx="525.5" cy="109.5" r="2" fill="white" stroke="#F4888D"/>
<circle cx="646.5" cy="73.5" r="2" fill="white" stroke="#F4888D"/>
<circle cx="770.5" cy="91.5" r="2" fill="white" stroke="#F4888D"/>
<rect x="480" y="21" width="12" height="12" fill="#F4888D"/>
<rect x="544" y="21" width="12" height="12" fill="#A0CF97"/>
<path d="M152.932 169.182H153.636V173.341C153.636 173.712 153.568 174.027 153.432 174.287C153.295 174.546 153.103 174.743 152.855 174.878C152.607 175.012 152.314 175.08 151.977 175.08C151.659 175.08 151.376 175.022 151.128 174.906C150.88 174.789 150.685 174.622 150.543 174.406C150.401 174.19 150.33 173.934 150.33 173.636H151.023C151.023 173.801 151.063 173.945 151.145 174.068C151.228 174.189 151.342 174.284 151.486 174.352C151.63 174.42 151.794 174.455 151.977 174.455C152.18 174.455 152.352 174.412 152.494 174.327C152.636 174.241 152.744 174.116 152.818 173.952C152.894 173.785 152.932 173.581 152.932 173.341V169.182ZM157.707 173.216V170.636H158.378V175H157.707V174.261H157.662C157.56 174.483 157.401 174.671 157.185 174.827C156.969 174.98 156.696 175.057 156.366 175.057C156.094 175.057 155.851 174.997 155.639 174.878C155.427 174.757 155.26 174.575 155.139 174.332C155.018 174.088 154.957 173.78 154.957 173.409V170.636H155.628V173.364C155.628 173.682 155.717 173.936 155.895 174.125C156.075 174.314 156.304 174.409 156.582 174.409C156.749 174.409 156.919 174.366 157.091 174.281C157.265 174.196 157.411 174.065 157.528 173.889C157.648 173.713 157.707 173.489 157.707 173.216ZM160.276 169.182V175H159.606V169.182H160.276ZM161.936 176.636C161.822 176.636 161.721 176.627 161.632 176.608C161.543 176.591 161.482 176.574 161.447 176.557L161.618 175.966C161.781 176.008 161.925 176.023 162.05 176.011C162.175 176 162.286 175.944 162.382 175.844C162.481 175.745 162.571 175.585 162.652 175.364L162.777 175.023L161.163 170.636H161.891L163.095 174.114H163.141L164.345 170.636H165.072L163.22 175.636C163.137 175.862 163.034 176.048 162.911 176.196C162.787 176.346 162.644 176.456 162.482 176.528C162.321 176.6 162.139 176.636 161.936 176.636Z" fill="black" fill-opacity="0.45"/>
<path d="M271.943 175H271.205L273.341 169.182H274.068L276.205 175H275.466L273.727 170.102H273.682L271.943 175ZM272.216 172.727H275.193V173.352H272.216V172.727ZM279.77 173.216V170.636H280.44V175H279.77V174.261H279.724C279.622 174.483 279.463 174.671 279.247 174.827C279.031 174.98 278.759 175.057 278.429 175.057C278.156 175.057 277.914 174.997 277.702 174.878C277.49 174.757 277.323 174.575 277.202 174.332C277.08 174.088 277.02 173.78 277.02 173.409V170.636H277.69V173.364C277.69 173.682 277.779 173.936 277.957 174.125C278.137 174.314 278.366 174.409 278.645 174.409C278.812 174.409 278.981 174.366 279.153 174.281C279.328 174.196 279.473 174.065 279.591 173.889C279.71 173.713 279.77 173.489 279.77 173.216ZM283.43 176.727C283.106 176.727 282.827 176.686 282.594 176.602C282.362 176.521 282.167 176.413 282.012 176.278C281.859 176.146 281.737 176.004 281.646 175.852L282.18 175.477C282.24 175.557 282.317 175.648 282.41 175.75C282.503 175.854 282.629 175.944 282.79 176.02C282.953 176.098 283.166 176.136 283.43 176.136C283.782 176.136 284.073 176.051 284.302 175.881C284.531 175.71 284.646 175.443 284.646 175.08V174.193H284.589C284.54 174.273 284.469 174.371 284.379 174.489C284.29 174.604 284.161 174.707 283.992 174.798C283.826 174.887 283.6 174.932 283.316 174.932C282.964 174.932 282.647 174.848 282.367 174.682C282.089 174.515 281.868 174.273 281.705 173.955C281.544 173.636 281.464 173.25 281.464 172.795C281.464 172.348 281.542 171.959 281.7 171.628C281.857 171.295 282.076 171.037 282.356 170.855C282.636 170.671 282.96 170.58 283.327 170.58C283.612 170.58 283.837 170.627 284.004 170.722C284.172 170.814 284.301 170.92 284.39 171.04C284.481 171.157 284.551 171.254 284.6 171.33H284.668V170.636H285.316V175.125C285.316 175.5 285.231 175.805 285.06 176.04C284.892 176.277 284.665 176.45 284.379 176.56C284.094 176.671 283.778 176.727 283.43 176.727ZM283.407 174.33C283.676 174.33 283.903 174.268 284.089 174.145C284.274 174.022 284.415 173.845 284.512 173.614C284.609 173.383 284.657 173.106 284.657 172.784C284.657 172.47 284.61 172.192 284.515 171.952C284.42 171.711 284.28 171.523 284.094 171.386C283.909 171.25 283.68 171.182 283.407 171.182C283.123 171.182 282.886 171.254 282.697 171.398C282.509 171.542 282.368 171.735 282.273 171.977C282.181 172.22 282.134 172.489 282.134 172.784C282.134 173.087 282.182 173.355 282.276 173.588C282.373 173.819 282.515 174.001 282.702 174.134C282.892 174.264 283.127 174.33 283.407 174.33Z" fill="black" fill-opacity="0.45"/>
<path d="M399.886 170.636C399.852 170.348 399.714 170.125 399.472 169.966C399.229 169.807 398.932 169.727 398.58 169.727C398.322 169.727 398.097 169.769 397.903 169.852C397.712 169.936 397.563 170.05 397.455 170.196C397.348 170.342 397.295 170.508 397.295 170.693C397.295 170.848 397.332 170.982 397.406 171.094C397.482 171.204 397.579 171.295 397.696 171.369C397.813 171.441 397.937 171.501 398.065 171.548C398.194 171.594 398.312 171.631 398.42 171.659L399.011 171.818C399.163 171.858 399.331 171.913 399.517 171.983C399.705 172.053 399.884 172.149 400.054 172.27C400.226 172.389 400.368 172.543 400.48 172.73C400.592 172.918 400.648 173.148 400.648 173.42C400.648 173.735 400.565 174.019 400.401 174.273C400.238 174.527 399.999 174.728 399.685 174.878C399.372 175.027 398.992 175.102 398.545 175.102C398.129 175.102 397.768 175.035 397.463 174.901C397.16 174.766 396.921 174.579 396.747 174.338C396.575 174.098 396.477 173.818 396.455 173.5H397.182C397.201 173.72 397.275 173.902 397.403 174.045C397.534 174.187 397.699 174.294 397.898 174.364C398.098 174.432 398.314 174.466 398.545 174.466C398.814 174.466 399.056 174.422 399.27 174.335C399.484 174.246 399.653 174.123 399.778 173.966C399.903 173.807 399.966 173.621 399.966 173.409C399.966 173.216 399.912 173.059 399.804 172.938C399.696 172.816 399.554 172.718 399.378 172.642C399.202 172.566 399.011 172.5 398.807 172.443L398.091 172.239C397.636 172.108 397.277 171.921 397.011 171.679C396.746 171.437 396.614 171.119 396.614 170.727C396.614 170.402 396.702 170.117 396.878 169.875C397.056 169.631 397.295 169.441 397.594 169.307C397.895 169.17 398.231 169.102 398.602 169.102C398.977 169.102 399.311 169.17 399.602 169.304C399.894 169.437 400.125 169.618 400.295 169.849C400.468 170.08 400.559 170.343 400.568 170.636H399.886ZM403.545 175.091C403.124 175.091 402.762 174.998 402.457 174.812C402.154 174.625 401.92 174.364 401.755 174.028C401.592 173.691 401.511 173.299 401.511 172.852C401.511 172.405 401.592 172.011 401.755 171.67C401.92 171.328 402.149 171.061 402.442 170.869C402.738 170.676 403.083 170.58 403.477 170.58C403.704 170.58 403.928 170.617 404.15 170.693C404.371 170.769 404.573 170.892 404.755 171.062C404.937 171.231 405.082 171.455 405.19 171.733C405.298 172.011 405.352 172.354 405.352 172.761V173.045H401.988V172.466H404.67C404.67 172.22 404.621 172 404.522 171.807C404.425 171.614 404.287 171.461 404.107 171.349C403.929 171.238 403.719 171.182 403.477 171.182C403.21 171.182 402.978 171.248 402.783 171.381C402.59 171.511 402.442 171.682 402.337 171.892C402.233 172.102 402.181 172.328 402.181 172.568V172.955C402.181 173.284 402.238 173.563 402.352 173.793C402.467 174.02 402.627 174.193 402.832 174.312C403.036 174.43 403.274 174.489 403.545 174.489C403.721 174.489 403.88 174.464 404.022 174.415C404.166 174.364 404.29 174.288 404.394 174.188C404.498 174.085 404.579 173.958 404.636 173.807L405.283 173.989C405.215 174.208 405.101 174.402 404.94 174.568C404.779 174.733 404.58 174.862 404.343 174.955C404.106 175.045 403.84 175.091 403.545 175.091ZM406.371 176.636V170.636H407.019V171.33H407.099C407.148 171.254 407.216 171.157 407.303 171.04C407.392 170.92 407.519 170.814 407.684 170.722C407.851 170.627 408.076 170.58 408.36 170.58C408.728 170.58 409.051 170.671 409.332 170.855C409.612 171.039 409.831 171.299 409.988 171.636C410.145 171.973 410.224 172.371 410.224 172.83C410.224 173.292 410.145 173.692 409.988 174.031C409.831 174.368 409.613 174.63 409.335 174.815C409.056 174.999 408.735 175.091 408.371 175.091C408.091 175.091 407.867 175.045 407.698 174.952C407.53 174.857 407.4 174.75 407.309 174.631C407.218 174.509 407.148 174.409 407.099 174.33H407.042V176.636H406.371ZM407.031 172.818C407.031 173.148 407.079 173.438 407.175 173.69C407.272 173.94 407.413 174.136 407.599 174.278C407.784 174.419 408.012 174.489 408.281 174.489C408.561 174.489 408.795 174.415 408.982 174.267C409.172 174.117 409.314 173.917 409.408 173.665C409.505 173.411 409.553 173.129 409.553 172.818C409.553 172.511 409.506 172.235 409.411 171.989C409.318 171.741 409.177 171.545 408.988 171.401C408.8 171.255 408.565 171.182 408.281 171.182C408.008 171.182 407.779 171.251 407.593 171.389C407.407 171.526 407.267 171.717 407.173 171.963C407.078 172.207 407.031 172.492 407.031 172.818Z" fill="black" fill-opacity="0.45"/>
<path d="M522.614 172.091C522.614 172.705 522.503 173.235 522.281 173.682C522.06 174.129 521.756 174.473 521.369 174.716C520.983 174.958 520.542 175.08 520.045 175.08C519.549 175.08 519.108 174.958 518.722 174.716C518.335 174.473 518.031 174.129 517.81 173.682C517.588 173.235 517.477 172.705 517.477 172.091C517.477 171.477 517.588 170.947 517.81 170.5C518.031 170.053 518.335 169.708 518.722 169.466C519.108 169.223 519.549 169.102 520.045 169.102C520.542 169.102 520.983 169.223 521.369 169.466C521.756 169.708 522.06 170.053 522.281 170.5C522.503 170.947 522.614 171.477 522.614 172.091ZM521.932 172.091C521.932 171.587 521.848 171.162 521.679 170.815C521.512 170.469 521.286 170.206 521 170.028C520.716 169.85 520.398 169.761 520.045 169.761C519.693 169.761 519.374 169.85 519.088 170.028C518.804 170.206 518.578 170.469 518.409 170.815C518.242 171.162 518.159 171.587 518.159 172.091C518.159 172.595 518.242 173.02 518.409 173.366C518.578 173.713 518.804 173.975 519.088 174.153C519.374 174.331 519.693 174.42 520.045 174.42C520.398 174.42 520.716 174.331 521 174.153C521.286 173.975 521.512 173.713 521.679 173.366C521.848 173.02 521.932 172.595 521.932 172.091ZM525.48 175.091C525.071 175.091 524.719 174.994 524.423 174.801C524.128 174.608 523.901 174.342 523.741 174.003C523.582 173.664 523.503 173.277 523.503 172.841C523.503 172.398 523.584 172.007 523.747 171.668C523.912 171.327 524.141 171.061 524.435 170.869C524.73 170.676 525.075 170.58 525.469 170.58C525.776 170.58 526.052 170.636 526.298 170.75C526.545 170.864 526.746 171.023 526.903 171.227C527.061 171.432 527.158 171.67 527.196 171.943H526.526C526.474 171.744 526.361 171.568 526.185 171.415C526.01 171.259 525.776 171.182 525.48 171.182C525.219 171.182 524.99 171.25 524.793 171.386C524.598 171.521 524.445 171.711 524.335 171.957C524.227 172.202 524.173 172.489 524.173 172.818C524.173 173.155 524.226 173.449 524.332 173.699C524.44 173.949 524.592 174.143 524.787 174.281C524.984 174.42 525.215 174.489 525.48 174.489C525.654 174.489 525.812 174.458 525.955 174.398C526.097 174.337 526.217 174.25 526.315 174.136C526.414 174.023 526.484 173.886 526.526 173.727H527.196C527.158 173.985 527.064 174.217 526.915 174.423C526.767 174.628 526.571 174.791 526.327 174.912C526.084 175.031 525.802 175.091 525.48 175.091ZM530.074 170.636V171.205H527.812V170.636H530.074ZM528.472 169.591H529.142V173.75C529.142 173.939 529.17 174.081 529.224 174.176C529.281 174.269 529.353 174.331 529.44 174.364C529.529 174.394 529.623 174.409 529.722 174.409C529.795 174.409 529.856 174.405 529.903 174.398C529.951 174.388 529.989 174.381 530.017 174.375L530.153 174.977C530.108 174.994 530.045 175.011 529.963 175.028C529.882 175.047 529.778 175.057 529.653 175.057C529.464 175.057 529.278 175.016 529.097 174.935C528.917 174.853 528.767 174.729 528.648 174.562C528.53 174.396 528.472 174.186 528.472 173.932V169.591Z" fill="black" fill-opacity="0.45"/>
<path d="M643.318 169.182V175H642.636L639.466 170.432H639.409V175H638.705V169.182H639.386L642.568 173.761H642.625V169.182H643.318ZM646.41 175.091C646.016 175.091 645.67 174.997 645.373 174.81C645.077 174.622 644.846 174.36 644.68 174.023C644.515 173.686 644.433 173.292 644.433 172.841C644.433 172.386 644.515 171.99 644.68 171.651C644.846 171.312 645.077 171.048 645.373 170.861C645.67 170.673 646.016 170.58 646.41 170.58C646.804 170.58 647.148 170.673 647.444 170.861C647.741 171.048 647.972 171.312 648.137 171.651C648.304 171.99 648.387 172.386 648.387 172.841C648.387 173.292 648.304 173.686 648.137 174.023C647.972 174.36 647.741 174.622 647.444 174.81C647.148 174.997 646.804 175.091 646.41 175.091ZM646.41 174.489C646.709 174.489 646.955 174.412 647.148 174.259C647.342 174.105 647.485 173.903 647.577 173.653C647.67 173.403 647.717 173.133 647.717 172.841C647.717 172.549 647.67 172.277 647.577 172.026C647.485 171.774 647.342 171.57 647.148 171.415C646.955 171.259 646.709 171.182 646.41 171.182C646.111 171.182 645.864 171.259 645.671 171.415C645.478 171.57 645.335 171.774 645.242 172.026C645.149 172.277 645.103 172.549 645.103 172.841C645.103 173.133 645.149 173.403 645.242 173.653C645.335 173.903 645.478 174.105 645.671 174.259C645.864 174.412 646.111 174.489 646.41 174.489ZM652.822 170.636L651.209 175H650.527L648.913 170.636H649.641L650.845 174.114H650.891L652.095 170.636H652.822Z" fill="black" fill-opacity="0.45"/>
<path d="M764.5 175H762.705V169.182H764.58C765.144 169.182 765.627 169.298 766.028 169.531C766.43 169.762 766.738 170.095 766.952 170.528C767.166 170.96 767.273 171.477 767.273 172.08C767.273 172.686 767.165 173.207 766.949 173.645C766.733 174.08 766.419 174.416 766.006 174.651C765.593 174.884 765.091 175 764.5 175ZM763.409 174.375H764.455C764.936 174.375 765.334 174.282 765.651 174.097C765.967 173.911 766.203 173.647 766.358 173.304C766.513 172.961 766.591 172.553 766.591 172.08C766.591 171.61 766.514 171.205 766.361 170.866C766.207 170.526 765.978 170.264 765.673 170.082C765.368 169.899 764.989 169.807 764.534 169.807H763.409V174.375ZM770.193 175.091C769.773 175.091 769.41 174.998 769.105 174.812C768.802 174.625 768.568 174.364 768.403 174.028C768.241 173.691 768.159 173.299 768.159 172.852C768.159 172.405 768.241 172.011 768.403 171.67C768.568 171.328 768.797 171.061 769.091 170.869C769.386 170.676 769.731 170.58 770.125 170.58C770.352 170.58 770.577 170.617 770.798 170.693C771.02 170.769 771.222 170.892 771.403 171.062C771.585 171.231 771.73 171.455 771.838 171.733C771.946 172.011 772 172.354 772 172.761V173.045H768.636V172.466H771.318C771.318 172.22 771.269 172 771.17 171.807C771.074 171.614 770.936 171.461 770.756 171.349C770.578 171.238 770.367 171.182 770.125 171.182C769.858 171.182 769.627 171.248 769.432 171.381C769.239 171.511 769.09 171.682 768.986 171.892C768.882 172.102 768.83 172.328 768.83 172.568V172.955C768.83 173.284 768.886 173.563 769 173.793C769.116 174.02 769.276 174.193 769.48 174.312C769.685 174.43 769.922 174.489 770.193 174.489C770.369 174.489 770.528 174.464 770.67 174.415C770.814 174.364 770.938 174.288 771.043 174.188C771.147 174.085 771.227 173.958 771.284 173.807L771.932 173.989C771.864 174.208 771.749 174.402 771.588 174.568C771.427 174.733 771.228 174.862 770.991 174.955C770.755 175.045 770.489 175.091 770.193 175.091ZM774.793 175.091C774.384 175.091 774.031 174.994 773.736 174.801C773.44 174.608 773.213 174.342 773.054 174.003C772.895 173.664 772.815 173.277 772.815 172.841C772.815 172.398 772.897 172.007 773.06 171.668C773.224 171.327 773.454 171.061 773.747 170.869C774.043 170.676 774.387 170.58 774.781 170.58C775.088 170.58 775.365 170.636 775.611 170.75C775.857 170.864 776.059 171.023 776.216 171.227C776.373 171.432 776.471 171.67 776.509 171.943H775.838C775.787 171.744 775.673 171.568 775.497 171.415C775.323 171.259 775.088 171.182 774.793 171.182C774.531 171.182 774.302 171.25 774.105 171.386C773.91 171.521 773.758 171.711 773.648 171.957C773.54 172.202 773.486 172.489 773.486 172.818C773.486 173.155 773.539 173.449 773.645 173.699C773.753 173.949 773.904 174.143 774.099 174.281C774.296 174.42 774.527 174.489 774.793 174.489C774.967 174.489 775.125 174.458 775.267 174.398C775.409 174.337 775.529 174.25 775.628 174.136C775.726 174.023 775.796 173.886 775.838 173.727H776.509C776.471 173.985 776.377 174.217 776.227 174.423C776.08 174.628 775.884 174.791 775.639 174.912C775.397 175.031 775.115 175.091 774.793 175.091Z" fill="black" fill-opacity="0.45"/>
<rect x="775.5" y="23.5" width="89" height="14" rx="7" stroke="black" stroke-opacity="0.45"/>
<path d="M806.304 31.464V27.688H807.416V31.568C807.416 32.536 806.816 33.184 805.672 33.184C804.648 33.184 804.032 32.624 804.032 31.536V30.992H805.04V31.48C805.04 32.016 805.216 32.28 805.672 32.28C806.184 32.28 806.304 32.048 806.304 31.464ZM811.385 33H810.401V32.448C810.129 32.896 809.721 33.104 809.177 33.104C808.393 33.104 807.841 32.52 807.841 31.656V29.064H808.881V31.496C808.881 31.992 809.105 32.232 809.545 32.232C810.073 32.232 810.353 31.856 810.353 31.336V29.064H811.385V33ZM812.881 33H811.841V27.624H812.881V33ZM815.197 30.944H813.213V30.136H815.197V30.944ZM816.616 32.096H817.536C818.504 32.096 818.92 31.488 818.92 30.288C818.92 29.088 818.504 28.608 817.44 28.608H816.616V32.096ZM817.76 33H815.536V27.688H817.592C819.032 27.688 820.056 28.672 820.056 30.288C820.056 31.904 819.136 33 817.76 33ZM821.403 30.648H823.011C822.995 30.064 822.611 29.784 822.203 29.784C821.787 29.784 821.443 30.104 821.403 30.648ZM824.083 31.304H821.371C821.403 31.896 821.739 32.28 822.251 32.28C822.587 32.28 822.883 32.112 822.955 31.84H824.027C823.787 32.648 823.139 33.104 822.299 33.104C820.987 33.104 820.331 32.384 820.331 30.96C820.331 29.744 821.027 28.96 822.235 28.96C823.443 28.96 824.083 29.744 824.083 31.304ZM826.938 31.576H827.986C827.874 32.488 827.13 33.104 826.178 33.104C825.106 33.104 824.37 32.392 824.37 30.984C824.37 29.576 825.106 28.96 826.21 28.96C827.234 28.96 827.93 29.544 827.994 30.472H826.946C826.89 30.064 826.594 29.824 826.202 29.824C825.762 29.824 825.402 30.104 825.402 30.96C825.402 31.816 825.762 32.232 826.17 32.232C826.578 32.232 826.898 32 826.938 31.576Z" fill="black" fill-opacity="0.45"/>
</svg>
